<svg id="Capa_1" enable-background="new 0 0 512 512" height="512" viewBox="0 0 512 512" width="512" xmlns="http://www.w3.org/2000/svg"><g><path d="m361.448 289.638-8.108-32.431-23.243 63.919c-2.203 6.059-8.031 10.037-14.474 9.869-6.444-.162-12.064-4.423-13.96-10.584l-27.51-89.406-44.227 110.566c-2.29 5.726-7.829 9.43-13.921 9.43-.373 0-.749-.014-1.125-.042-6.527-.488-11.983-5.152-13.482-11.522l-27.889-118.53-23.279 69.837c-2.042 6.125-7.774 10.256-14.23 10.256h-68.901l178.295 178.295c2.929 2.929 6.768 4.394 10.606 4.394s7.678-1.464 10.606-4.394l178.295-178.295h-68.901c-6.883 0-12.883-4.685-14.552-11.362z"/><path d="m161.77 161.257c2.121-6.364 8.205-10.554 14.91-10.241 6.701.304 12.385 5.02 13.922 11.549l29.117 123.75 42.354-105.885c2.361-5.904 8.193-9.677 14.542-9.417 6.353.261 11.852 4.499 13.722 10.576l26.849 87.258 24.718-67.973c2.252-6.196 8.263-10.203 14.875-9.854 6.585.342 12.175 4.945 13.773 11.342l17.16 68.638h86.914c51.419-56.997 49.685-145.22-5.205-200.109-56.682-56.682-148.908-56.682-205.59 0l-7.831 7.831-7.831-7.831c-27.457-27.458-63.964-42.579-102.795-42.579s-75.338 15.121-102.795 42.579c-54.89 54.889-56.624 143.112-5.205 200.109h87.814z"/><path d="m37.374 271h-22.374c-8.284 0-15 6.716-15 15s6.716 15 15 15h52.099l-24.52-24.52c-1.792-1.791-3.526-3.619-5.205-5.48z"/><path d="m497 271h-22.374c-1.679 1.861-3.413 3.689-5.205 5.48l-24.52 24.52h52.099c8.284 0 15-6.716 15-15s-6.716-15-15-15z"/></g></svg>